<svg viewBox="0 0 48 48" xmlns="http://www.w3.org/2000/svg">
    <path
        d="M35,2A11,11,0,1,0,46,13,11.007,11.007,0,0,0,35,2Zm3,16H32a.983.983,0,0,1-.81-.42,1,1,0,0,1-.14-.9l.59-1.75A1,1,0,0,1,32,13V9a1,1,0,0,1,1-1h4a1,1,0,0,1,1,1v2a1,1,0,0,1-2,0V10H34v3h2a1,1,0,0,1,0,2H33.72l-.33,1H38a1,1,0,0,1,0,2Z" />
    <path
        d="M43.78 35.62l-8 10a.991.991 0 0 1-1.56 0l-8-10A1.02 1.02 0 0 1 26 35a.935.935 0 0 1 .1-.43A1 1 0 0 1 27 34h4V25.36a12.82 12.82 0 0 0 8 0V34h4a1 1 0 0 1 .9.57A.981.981 0 0 1 43.78 35.62zM13 24A11 11 0 1 0 24 35 11.007 11.007 0 0 0 13 24zm3 10a1 1 0 0 1 1 1v4a1 1 0 0 1-1 1H14v1a1 1 0 0 1-2 0V40H10a1 1 0 0 1 0-2h5V36H10a1 1 0 0 1-1-1V31a1 1 0 0 1 1-1h2V29a1 1 0 0 1 2 0v1h2a1 1 0 0 1 0 2H11v2zM21.9 13.43A1 1 0 0 1 21 14H17v8.64a12.82 12.82 0 0 0-8 0V14H5a1 1 0 0 1-.9-.57.981.981 0 0 1 .12-1.05l8-10a1.025 1.025 0 0 1 1.56 0l8 10A.981.981 0 0 1 21.9 13.43z" />
</svg>