<svg data-name="Layer 1" viewBox="0 0 512 512" xmlns="http://www.w3.org/2000/svg">
    <path
        d="M359.5,229.18848h-40a17.52,17.52,0,0,0-17.5,17.5v25a17.52,17.52,0,0,0,17.5,17.5h40a17.52,17.52,0,0,0,17.5-17.5v-25A17.52,17.52,0,0,0,359.5,229.18848Zm2.5,42.5a2.50263,2.50263,0,0,1-2.5,2.5h-40a2.50263,2.50263,0,0,1-2.5-2.5v-25a2.50294,2.50294,0,0,1,2.5-2.5h40a2.50294,2.50294,0,0,1,2.5,2.5ZM186.76978,370.67615c-.0138-.1366-.03986-.26929-.06086-.40369-.01642-.10449-.027-.21-.04791-.3136-.03522-.17651-.0827-.34826-.13007-.52014-.0169-.06128-.02893-.12353-.04742-.18445-.04834-.15918-.10742-.31335-.16589-.46789-.02777-.07373-.051-.14893-.08112-.22168-.05414-.13062-.11755-.25611-.17877-.38282-.04553-.09472-.0871-.19091-.13678-.28393-.05316-.09912-.11389-.19336-.17133-.2898-.06817-.115-.13354-.23107-.20813-.34265-.04846-.07238-.10308-.13977-.15405-.21032-.09186-.12769-.18231-.25586-.28271-.37818-.04749-.05762-.10041-.11035-.1496-.16675-.11-.126-.21875-.25268-.33814-.37207-.1087-.10888-.22583-.20886-.341-.311-.06586-.05811-.1264-.12061-.1947-.17688a7.51451,7.51451,0,0,0-.60663-.4502l-.00641-.00476c-.0249-.0166-.05127-.02929-.07629-.04553-.18158-.11829-.36707-.23083-.559-.33325-.06867-.03674-.13941-.06629-.2088-.10059-.15009-.07422-.3-.14831-.45563-.21264-.10089-.04175-.20362-.07483-.30554-.11182-.12653-.046-.25171-.09412-.38129-.13342-.13013-.03943-.26154-.06885-.39282-.101-.10523-.02563-.20887-.055-.31574-.07629-.163-.03247-.32684-.05347-.49078-.075-.0791-.01025-.15662-.02539-.23645-.03308-.21362-.02088-.42737-.02979-.64111-.03235-.03254-.00049-.064-.00488-.09668-.00488l-.00861.00049a7.50618,7.50618,0,0,0-.75256.03784c-.10572.01074-.20789.03222-.31226.04712-.13513.01965-.271.03491-.40485.06176-.16723.03345-.32983.07886-.49285.12329-.0705.01917-.14216.03333-.2121.05457-.1529.04651-.30078.10364-.4494.1593-.0799.03-.16126.05518-.24012.08789-.12512.052-.245.1128-.36663.17115-.10029.04809-.202.09216-.3003.14477-.0924.04956-.18.1062-.27008.15955-.12195.0719-.24493.1416-.3631.22058-.0639.043-.12341.09143-.18591.13623-.13568.09692-.27161.19336-.40137.3-.0498.041-.095.08667-.14373.1289-.134.11609-.26807.23206-.39466.35865-.08624.08618-.1643.17993-.24634.27026-.08038.08862-.16473.17224-.24139.2655a7.51711,7.51711,0,0,0-.44934.60572l-.00464.00622L149.30811,402.915l-23.75977-35.63965-.00464-.00622a7.51084,7.51084,0,0,0-.45038-.60682c-.04992-.06067-.10553-.114-.157-.17285-.10852-.12329-.21564-.2478-.33191-.36377-.11359-.11352-.23444-.21679-.354-.32177-.06244-.05481-.12116-.11353-.18537-.16626-.11743-.09644-.24078-.183-.3631-.27149-.0755-.05469-.14807-.11316-.22564-.16516-.10456-.07-.21363-.131-.32117-.19519-.10406-.06226-.20593-.12769-.31317-.18506-.08215-.0437-.16736-.0802-.25092-.12085-.13757-.06714-.27435-.1355-.4165-.19446-.0578-.0238-.11749-.042-.17578-.06433-.16944-.06518-.3393-.12939-.51441-.18237-.03491-.0105-.07074-.01709-.10577-.0271-.19714-.05664-.39587-.1095-.59924-.1499l-.01709-.00269a7.53755,7.53755,0,0,0-.8335-.1123c-.2008-.01673-.402-.02979-.604-.0304l-.0166-.00085c-.06159,0-.12122.00781-.1825.00927-.18274.00415-.36542.00989-.548.02759-.09925.00952-.19568.02771-.29377.04114-.14483.0199-.28967.03772-.43371.06616-.12165.02405-.23963.057-.35907.08679-.11713.0293-.23468.05506-.35089.09021-.14075.04248-.277.09436-.41407.14466-.09149.03369-.18365.063-.27429.10034-.16345.06738-.32123.145-.47864.22339-.06231.031-.126.05737-.18774.09033-.19366.10327-.38061.21667-.56366.33594-.02423.01574-.04968.02783-.07379.04394l-.00641.00476a7.51451,7.51451,0,0,0-.60663.4502c-.0683.05627-.12884.11877-.1947.17688-.11517.10217-.2323.20215-.341.311-.11939.11939-.22815.2461-.33814.37207-.04919.0564-.10211.10913-.1496.16675-.1004.12232-.19085.25049-.28271.37818-.051.07055-.10559.13794-.154.21032-.07459.11158-.14.22766-.20813.34265-.05744.09644-.11817.19068-.17133.2898-.04968.093-.09125.18921-.13678.28393-.06122.12671-.12463.2522-.17877.38282-.03015.07275-.05335.14795-.08112.22168-.05847.15454-.11755.30871-.16589.46789-.01849.06092-.03052.12317-.04742.18445-.04737.17188-.09485.34363-.13007.52014-.02087.10364-.03149.20911-.04791.3136-.021.1344-.04706.26709-.06085.40369-.0254.24841-.03717.49841-.03779.7489l-.00054.0105v88a7.5,7.5,0,0,0,15,0v-63.2295l16.25976,24.38965a7.49961,7.49961,0,0,0,12.48047,0l16.25977-24.38965v63.2295a7.5,7.5,0,0,0,15,0v-88l-.00055-.0105C186.807,371.17456,186.79517,370.92456,186.76978,370.67615Zm84.03833,8.2594a7.5,7.5,0,0,0,0-15h-60a7.5,7.5,0,0,0,0,15h22.5v73h-22.5a7.5,7.5,0,0,0,0,15h60a7.5,7.5,0,0,0,0-15h-22.5v-73ZM369.5,184.18848h-60a7.5,7.5,0,0,0,0,15h60a7.5,7.5,0,0,0,0-15Zm-100,45h-40a17.52,17.52,0,0,0-17.5,17.5v25a17.52,17.52,0,0,0,17.5,17.5h40a17.52,17.52,0,0,0,17.5-17.5v-25A17.52,17.52,0,0,0,269.5,229.18848Zm2.5,42.5a2.50263,2.50263,0,0,1-2.5,2.5h-40a2.50263,2.50263,0,0,1-2.5-2.5v-25a2.50294,2.50294,0,0,1,2.5-2.5h40a2.50294,2.50294,0,0,1,2.5,2.5Zm7.5-87.5h-60a7.5,7.5,0,0,0,0,15h60a7.5,7.5,0,0,0,0-15ZM89.30811,378.93555a7.5,7.5,0,0,0,0-15h-45a7.49974,7.49974,0,0,0-7.5,7.5v88a7.49975,7.49975,0,0,0,7.5,7.5h45a7.5,7.5,0,0,0,0-15h-37.5v-29h37.5a7.5,7.5,0,0,0,0-15h-37.5v-29ZM444.5,45h-210A22.52523,22.52523,0,0,0,212,67.5v64.18848a22.52523,22.52523,0,0,0,22.5,22.5h210a22.52523,22.52523,0,0,0,22.5-22.5V67.5A22.52523,22.52523,0,0,0,444.5,45Zm7.5,86.68848a7.5082,7.5082,0,0,1-7.5,7.5h-210a7.5082,7.5082,0,0,1-7.5-7.5V67.5a7.5082,7.5082,0,0,1,7.5-7.5h210a7.5082,7.5082,0,0,1,7.5,7.5ZM429.5,92.09424a7.5,7.5,0,1,0,7.5,7.5A7.5,7.5,0,0,0,429.5,92.09424Zm-30,0a7.5,7.5,0,1,0,7.5,7.5A7.5,7.5,0,0,0,399.5,92.09424ZM500.99219,10.18213a37.25977,37.25977,0,0,0-26.502-10.96192h-.07031L204.42627-.06006A37.55435,37.55435,0,0,0,167,37.43994V318.90918H36.73584a37.54227,37.54227,0,0,0-37.5,37.5V474.46191a37.54226,37.54226,0,0,0,37.5,37.5h241.644a37.69818,37.69818,0,0,0,4.13135-.23254l192.062-.50964A37.55289,37.55289,0,0,0,512,473.71973V36.72021A37.24731,37.24731,0,0,0,500.99219,10.18213ZM300.87988,474.46191a22.52554,22.52554,0,0,1-22.5,22.5H36.73584a22.52554,22.52554,0,0,1-22.5-22.5V356.40918a22.52554,22.52554,0,0,1,22.5-22.5H174.48065l.01935.001.01935-.001H278.37988a22.52554,22.52554,0,0,1,22.5,22.5ZM497,473.71973a22.53123,22.53123,0,0,1-22.46,22.5l-165.96.44043a37.2954,37.2954,0,0,0,7.29986-22.19825v-7.84326A17.50022,17.50022,0,0,0,319.5,467h40A17.52,17.52,0,0,0,377,449.5v-25A17.52,17.52,0,0,0,359.5,407h-40a17.50022,17.50022,0,0,0-3.62012.38135V378.80713a17.50022,17.50022,0,0,0,3.62012.38135h40a17.52,17.52,0,0,0,17.5-17.5v-25a17.52,17.52,0,0,0-17.5-17.5h-40a17.504,17.504,0,0,0-15.65509,9.72583,37.35232,37.35232,0,0,0-25.465-10.00513H182V37.43994a22.53279,22.53279,0,0,1,22.46-22.5l269.99365-.71973h.04248A22.50412,22.50412,0,0,1,497,36.72021ZM317,449.5v-25a2.50263,2.50263,0,0,1,2.5-2.5h40a2.50263,2.50263,0,0,1,2.5,2.5v25a2.50263,2.50263,0,0,1-2.5,2.5h-40A2.50263,2.50263,0,0,1,317,449.5Zm0-87.81152v-25a2.50263,2.50263,0,0,1,2.5-2.5h40a2.50263,2.50263,0,0,1,2.5,2.5v25a2.50263,2.50263,0,0,1-2.5,2.5h-40A2.50263,2.50263,0,0,1,317,361.68848Zm142.5-177.5h-60a7.5,7.5,0,0,0,0,15h60a7.5,7.5,0,0,0,0-15Zm-90-92.09424a7.5,7.5,0,1,0,7.5,7.5A7.5,7.5,0,0,0,369.5,92.09424Zm80,137.09424h-40a17.52,17.52,0,0,0-17.5,17.5v25a17.52,17.52,0,0,0,17.5,17.5h40a17.52,17.52,0,0,0,17.5-17.5v-25A17.52,17.52,0,0,0,449.5,229.18848Zm2.5,42.5a2.50263,2.50263,0,0,1-2.5,2.5h-40a2.50263,2.50263,0,0,1-2.5-2.5v-25a2.50294,2.50294,0,0,1,2.5-2.5h40a2.50294,2.50294,0,0,1,2.5,2.5Zm-2.5,47.5h-40a17.52,17.52,0,0,0-17.5,17.5V449.5A17.52,17.52,0,0,0,409.5,467h40A17.52,17.52,0,0,0,467,449.5V336.68848A17.52,17.52,0,0,0,449.5,319.18848ZM452,449.5a2.50263,2.50263,0,0,1-2.5,2.5h-40a2.50263,2.50263,0,0,1-2.5-2.5V336.68848a2.50263,2.50263,0,0,1,2.5-2.5h40a2.50263,2.50263,0,0,1,2.5,2.5ZM339.5,92.09424a7.5,7.5,0,1,0,7.5,7.5A7.5,7.5,0,0,0,339.5,92.09424Z" />
</svg>